Coordinates
version=1
nRows=54
nColumns=12
inDegrees=yes

Units are S.I. units (second, meters, Newtons, ...)
Angles are in degrees

endheader
time	SC_y	SC_z	SC_x	AC_y	AC_z	AC_x	GH_y	GH_z	GH_yy	EL_x	PS_y
       0.0              -29.49          23.31          38.19          54.22         -10.26          18.77         -139.2          51.36          73.86          135.0          132.6
   0.02151              -29.49          23.31          38.18          54.21         -10.26          18.77         -139.1          51.36          73.87          135.0          132.6
   0.04301              -29.49          23.31          38.18          54.21         -10.26          18.77         -139.1          51.35          73.88          135.0          132.6
   0.06452              -29.49           23.3          38.17          54.21         -10.26          18.77         -139.1          51.35          73.88          135.0          132.5
   0.08603              -29.48           23.3          38.17          54.21         -10.26          18.77         -139.0          51.34           73.9          135.0          132.5
    0.1075              -29.48           23.3          38.16          54.21         -10.26          18.77         -139.0          51.34          73.91          135.0          132.5
     0.129              -29.48          23.29          38.15           54.2         -10.26          18.77         -139.0          51.33          73.92          135.0          132.5
    0.1505              -29.48          23.29          38.15           54.2         -10.26          18.77         -138.9          51.33          73.93          135.0          132.5
    0.1721              -29.47          23.29          38.14           54.2         -10.26          18.77         -138.9          51.32          73.94          134.9          132.5
    0.1936              -29.47          23.28          38.13          54.19         -10.26          18.77         -138.8          51.31          73.96          134.9          132.5
    0.2151              -29.47          23.28          38.12          54.19         -10.26          18.77         -138.8          51.31          73.97          134.9          132.4
    0.2366              -29.47          23.27          38.11          54.19         -10.26          18.77         -138.7           51.3          73.99          134.9          132.4
    0.2581              -29.46          23.27           38.1          54.18         -10.26          18.77         -138.7          51.29          74.01          134.9          132.4
    0.2796              -29.46          23.26          38.09          54.18         -10.26          18.77         -138.6          51.28          74.03          134.9          132.4
    0.3011              -29.45          23.26          38.08          54.17         -10.26          18.77         -138.5          51.27          74.05          134.8          132.3
    0.3226              -29.45          23.25          38.07          54.17         -10.26          18.77         -138.5          51.26          74.07          134.8          132.3
    0.3441              -29.44          23.24          38.05          54.16         -10.26          18.77         -138.4          51.24           74.1          134.8          132.3
    0.3656              -29.44          23.24          38.04          54.16         -10.25          18.77         -138.3          51.23          74.12          134.8          132.3
    0.3871              -29.43          23.23          38.02          54.15         -10.25          18.77         -138.2          51.22          74.15          134.7          132.2
    0.4086              -29.43          23.22           38.0          54.14         -10.25          18.77         -138.1           51.2          74.19          134.7          132.2
    0.4301              -29.42          23.21          37.98          54.14         -10.25          18.77         -138.0          51.18          74.22          134.7          132.1
    0.4516              -29.41           23.2          37.96          54.13         -10.25          18.77         -137.9          51.16          74.26          134.6          132.1
    0.4731              -29.41          23.18          37.93          54.12         -10.25          18.76         -137.7          51.14           74.3          134.6          132.0
    0.4947               -29.4          23.17           37.9          54.11         -10.25          18.76         -137.6          51.12          74.35          134.6          132.0
    0.5162              -29.39          23.16          37.87           54.1         -10.25          18.76         -137.4          51.09          74.41          134.5          131.9
    0.5377              -29.37          23.14          37.84          54.08         -10.25          18.76         -137.2          51.06          74.46          134.5          131.8
    0.5592              -29.36          23.12           37.8          54.07         -10.24          18.76         -137.0          51.03          74.53          134.4          131.7
    0.5807              -29.35           23.1          37.76          54.05         -10.24          18.76         -136.7          50.99          74.61          134.3          131.7
    0.6022              -29.33          23.07          37.71          54.03         -10.24          18.76         -136.5          50.95          74.69          134.2          131.6
    0.6237              -29.31          23.05          37.65          54.01         -10.24          18.76         -136.2           50.9          74.79          134.2          131.4
    0.6452              -29.29          23.02          37.59          53.99         -10.23          18.75         -135.8          50.85           74.9          134.1          131.3
    0.6667              -29.27          22.98          37.52          53.96         -10.23          18.75         -135.4          50.78          75.02          133.9          131.1
    0.6882              -29.24          22.94          37.43          53.93         -10.23          18.75         -134.9          50.71          75.17          133.8          131.0
    0.7097              -29.21          22.89          37.34          53.89         -10.22          18.75         -134.4          50.63          75.34          133.6          130.8
    0.7312              -29.17          22.84          37.22          53.85         -10.22          18.74         -133.7          50.53          75.53          133.5          130.5
    0.7527              -29.12          22.77          37.09           53.8         -10.21          18.74         -133.0          50.41          75.77          133.2          130.2
    0.7742              -29.07          22.69          36.93          53.74          -10.2          18.74         -132.1          50.28          76.04          133.0          129.9
    0.7957              -29.01           22.6          36.74          53.67         -10.19          18.73         -131.0          50.11          76.37          132.7          129.5
    0.8173              -28.93          22.48          36.51          53.58         -10.18          18.72         -129.7          49.91          76.77          132.3          129.0
    0.8388              -28.83          22.34          36.22          53.47         -10.17          18.72         -128.2          49.67          77.26          131.8          128.4
    0.8603              -28.72          22.17          35.87          53.34         -10.15          18.71         -126.2          49.37          77.87          131.3          127.6
    0.8818              -28.57          21.96          35.44          53.18         -10.13          18.69         -123.8          48.99          78.62          130.5          126.7
    0.9033              -28.39          21.69          34.89          52.97          -10.1          18.68         -120.7          48.52          79.57          129.7          125.5
    0.9248              -28.15          21.35          34.19          52.71         -10.07          18.66         -116.8          47.92          80.78          128.5          124.0
    0.9463              -27.86          20.91           33.3          52.37         -10.03          18.63         -111.8          47.15          82.32          127.1          122.1
    0.9678              -27.47          20.35          32.16          51.94         -9.975           18.6         -105.4          46.17          84.31          125.2          119.7
    0.9893              -26.98          19.63           30.7          51.38         -9.906          18.56         -97.22          44.91          86.84          122.8          116.5
     1.011              -26.37          18.72          28.86          50.69         -9.818          18.51         -86.93          43.32          90.02          119.8          112.6
     1.032              -25.62          17.62          26.62          49.84         -9.712          18.44         -74.39          41.39          93.91          116.2          107.8
     1.054              -24.75          16.35          24.02          48.86         -9.588          18.37         -59.85          39.16           98.4          111.9          102.3
     1.075              -23.81          14.96          21.21          47.79         -9.455          18.29         -44.11          36.74          103.3          107.4          96.25
     1.097              -22.87          13.58           18.4          46.73         -9.321          18.21         -28.38          34.31          108.1          102.8          90.24
     1.118               -22.0           12.3           15.8          45.75         -9.198          18.14         -13.84          32.08          112.6          98.56          84.68
      1.14              -21.25           11.2          13.56           44.9         -9.091          18.07         -1.302          30.15          116.5          94.91          79.89
